<?xml version="1.0" encoding="UTF-8" standalone="no"?><!DOCTYPE svg PUBLIC "-//W3C//DTD SVG 1.1//EN" "http://www.w3.org/Graphics/SVG/1.1/DTD/svg11.dtd"><svg width="100%" height="100%" viewBox="0 0 64 64" version="1.1" xmlns="http://www.w3.org/2000/svg" xmlns:xlink="http://www.w3.org/1999/xlink" xml:space="preserve" xmlns:serif="http://www.serif.com/" style="fill-rule:evenodd;clip-rule:evenodd;stroke-linecap:round;stroke-linejoin:bevel;stroke-miterlimit:1.5;"><rect id="Config-Icon--export-" serif:id="Config Icon (export)" x="0" y="0" width="64" height="64" style="fill:none;"/><circle cx="32" cy="32" r="25.206" style="fill:#fff;"/><g><path d="M41.266,33.963l-13.346,-0l-0,7.144l13.346,-0l0,-7.144Zm-15.525,0.226l-13.47,0l0,6.918l13.47,-0l-0,-6.918Zm-18.832,0.225l2.924,0.009l-0,6.667l-1.346,0.004c-0.815,-2.105 -1.356,-4.346 -1.578,-6.68Zm2.924,-2.572l-3.039,0.127c0.005,-4.201 1.04,-8.162 2.867,-11.647l0.172,11.52Zm4.243,-17.557l10.837,-0.435l0.318,17.953l-12.92,0.039l-0.174,-15.354c0.604,-0.771 1.252,-1.507 1.939,-2.203Z" style="fill:#ff49ba;"/><path d="M56.245,25.09c0.626,2.197 0.961,4.514 0.961,6.91c-0,2.966 -0.514,5.813 -1.457,8.457l-12.069,0l-0.119,-11.358c0.442,-1.347 1.379,-2.329 2.824,-2.937l9.86,-1.072Zm-13.229,-15.764c4.931,2.403 8.964,6.367 11.453,11.248l0.011,0.944l-8.04,0.867c-1.813,0.085 -2.471,0.522 -3.058,0.982l-0.366,-14.041Zm-18.103,3.064l-8.864,0.099c2.574,-2.107 5.571,-3.716 8.844,-4.677l0.02,4.578Zm2.382,-5.156c1.524,-0.289 3.097,-0.44 4.705,-0.44c2.857,0 5.604,0.477 8.164,1.354l0.003,3.687l-12.872,0l0,-4.601Z" style="fill:#fffc49;"/><path d="M49.121,50.492c-0.392,-1.755 -0.784,-3.402 -1.176,-4.912l-4.102,-0l-0.151,-6.489l2.035,1.279l10.037,0.045c-0.678,1.913 -1.581,3.72 -2.676,5.39l-0.023,-0l0.002,0.031c-1.125,1.708 -2.451,3.271 -3.946,4.656Zm-7.855,-9.385l-13.425,-0l0,4.473l13.425,-0l0,-4.473Zm-15.525,-0l-13.47,-0l0,4.473l13.47,-0l-0,-4.473Zm-15.908,2.893c-0.506,-0.931 -0.954,-1.897 -1.341,-2.893l1.341,-0l-0,2.893Zm30.877,-29.842l-13.189,0l-0,8.743l13.189,-0.212l-0,-8.531Z" style="fill:#49ff68;"/><path d="M36.263,56.846c-1.387,0.237 -2.811,0.36 -4.263,0.36c-1.231,-0 -2.442,-0.089 -3.626,-0.26l0.001,-0.088l7.888,-0.012Z" style="fill:#ff6049;"/><path d="M12.271,47.682l0,-2.102l13.47,-0l-0,9.484l-3.918,-0c-3.754,-1.661 -7.027,-4.211 -9.552,-7.382Zm28.995,-2.102l-13.346,-0l-0,9.401l13.346,-0l0,-9.401Zm7.837,4.929c-1.534,1.417 -3.243,2.647 -5.092,3.652l-0.168,-8.581l4.159,-0l1.101,4.929Zm-8.393,-27.82l-13.189,0.212l0.219,8.664l9.378,-0.223c2.375,-0.074 3.779,-2.333 3.842,-5.371l-0.25,-3.282Z" style="fill:#c549ff;"/><g id="Creek"><path d="M43.665,39.08c1.286,0.557 2.539,1.476 3.724,3.134l1.247,3.366l1.074,4.811" style="fill:none;stroke:#4982ff;stroke-width:0.45px;"/><path d="M35.956,33.963c-0,-0 -0.697,3.504 1.099,5.117c1.796,1.613 4.211,1.256 4.211,1.256" style="fill:none;stroke:#4982ff;stroke-width:0.45px;"/><path d="M16.722,11.457l1.396,1.161" style="fill:none;stroke:#4982ff;stroke-width:0.24px;"/></g><g><path d="M43.68,37.535l-2.414,-0l0,3.82l2.443,0.029l-0.029,-3.849Z" style="fill:#fff;"/><path d="M37.116,32.843l-2.413,-0l-0.123,1.12l2.566,-0.007l-0.03,-1.113Z" style="fill:#fff;"/><path d="M19.105,12.455l-2.233,0.025l-0.15,1.095l2.566,-0.007l-0.183,-1.113Z" style="fill:#fff;"/></g></g><path d="M32,5.407c-14.677,0 -26.593,11.916 -26.593,26.593c0,14.677 11.916,26.593 26.593,26.593c14.677,-0 26.593,-11.916 26.593,-26.593c-0,-14.677 -11.916,-26.593 -26.593,-26.593Zm0,1.387c13.911,0 25.206,11.295 25.206,25.206c-0,13.911 -11.295,25.206 -25.206,25.206c-13.911,-0 -25.206,-11.295 -25.206,-25.206c0,-13.911 11.295,-25.206 25.206,-25.206Z"/><g><path d="M45.38,54.841l-0.641,-7.134l-6.518,3l-0.366,8.901l7.525,-4.767Z" style="fill:#fff;"/><path d="M45.38,54.841l-0.641,-7.134l-6.518,3l-0.366,8.901l7.525,-4.767Zm-1.457,-0.719l-4.573,2.897c-0,0 0.222,-5.407 0.222,-5.407c-0,0 3.962,-1.823 3.962,-1.823l0.389,4.333Z"/><path d="M61.078,27.651l-7.159,-4.134l-15.698,27.19l7.159,4.134l15.698,-27.19Z" style="fill:#e3e029;"/><path d="M61.078,27.651l-7.159,-4.134l-15.698,27.19l7.159,4.134l15.698,-27.19Zm-1.895,0.507l-14.311,24.788c0,-0 -4.756,-2.746 -4.756,-2.746c-0,-0 14.311,-24.788 14.311,-24.788l4.756,2.746Z"/><path d="M39.195,55.236l1.794,1.036l-1.759,0.953l-0.035,-1.989Z"/><path d="M62.506,25.178c0.387,-0.671 0.157,-1.529 -0.513,-1.916l-4.731,-2.731c-0.67,-0.387 -1.528,-0.157 -1.915,0.513l-1.402,2.429c-0.387,0.67 -0.157,1.528 0.513,1.915l4.73,2.732c0.671,0.386 1.529,0.156 1.916,-0.514l1.402,-2.428Z" style="fill:#e329b2;"/><path d="M62.506,25.178c0.387,-0.671 0.157,-1.529 -0.513,-1.916l-4.731,-2.731c-0.67,-0.387 -1.528,-0.157 -1.915,0.513l-1.402,2.429c-0.387,0.67 -0.157,1.528 0.513,1.915l4.73,2.732c0.671,0.386 1.529,0.156 1.916,-0.514l1.402,-2.428Zm-1.201,-0.694l-1.402,2.429c-0.004,0.007 -0.014,0.009 -0.021,0.005c0,0 -4.731,-2.731 -4.731,-2.731c-0.007,-0.004 -0.009,-0.013 -0.005,-0.021c-0,0 1.402,-2.428 1.402,-2.428c0.004,-0.008 0.014,-0.01 0.021,-0.006c-0,0 4.73,2.731 4.73,2.731c0.008,0.005 0.01,0.014 0.006,0.021Z" style="fill:#010101;"/></g></svg>